<svg version="1.1" xmlns="http://www.w3.org/2000/svg" xmlns:xlink="http://www.w3.org/1999/xlink" width="549" height="436"><defs/><g><g transform="translate(-54,-78) scale(1,1)"><rect fill="#C0C0C0" stroke="none" x="71" y="95" width="208.20068359375" height="120" opacity="0.2"/></g><g transform="translate(-54,-78) scale(1,1)"><rect fill="#ffffff" stroke="none" x="64" y="88" width="208.20068359375" height="120"/></g><g transform="translate(-54,-78) scale(1,1)"><path fill="none" stroke="#000000" d="M 64 88 L 272.20068359375 88 L 272.20068359375 208 L 64 208 L 64 88 Z Z" stroke-miterlimit="10"/></g><g transform="translate(-54,-78) scale(1,1)"><path fill="none" stroke="#000000" d="M 64 111 L 272.20068359375 111" stroke-miterlimit="10"/></g><g transform="translate(-54,-78) scale(1,1)"><path fill="none" stroke="#000000" d="M 92.05908203125 111 L 92.05908203125 208" stroke-miterlimit="10"/></g><g transform="translate(-54,-78) scale(1,1)"><path fill="none" stroke="#000000" d="M 177.1962890625 111 L 177.1962890625 208" stroke-miterlimit="10"/></g><g transform="translate(-54,-78) scale(1,1)"><g><path fill="none" stroke="none"/><text fill="#000000" stroke="none" font-family="Arial" font-size="13px" font-style="normal" font-weight="bold" text-decoration="none" x="145.699462890625" y="105.5">Product</text></g></g><g transform="translate(-54,-78) scale(1,1)"><g><path fill="none" stroke="none"/><text fill="#000000" stroke="none" font-family="Arial" font-size="13px" font-style="normal" font-weight="normal" text-decoration="none" x="69" y="129">PK</text></g></g><g transform="translate(-54,-78) scale(1,1)"><g><path fill="none" stroke="none"/><text fill="#000000" stroke="none" font-family="Arial" font-size="13px" font-style="normal" font-weight="normal" text-decoration="none" x="97.05908203125" y="129">id</text></g></g><g transform="translate(-54,-78) scale(1,1)"><g><path fill="none" stroke="none"/><text fill="#000000" stroke="none" font-family="Arial" font-size="13px" font-style="normal" font-weight="normal" text-decoration="none" x="182.1962890625" y="129">int</text></g></g><g transform="translate(-54,-78) scale(1,1)"><g><path fill="none" stroke="none"/><text fill="#000000" stroke="none" font-family="Arial" font-size="13px" font-style="normal" font-weight="normal" text-decoration="none" x="69" y="128.5"></text></g></g><g transform="translate(-54,-78) scale(1,1)"><g><path fill="none" stroke="none"/><text fill="#000000" stroke="none" font-family="Arial" font-size="13px" font-style="normal" font-weight="normal" text-decoration="none" x="69" y="144"></text></g></g><g transform="translate(-54,-78) scale(1,1)"><g><path fill="none" stroke="none"/><text fill="#000000" stroke="none" font-family="Arial" font-size="13px" font-style="normal" font-weight="normal" text-decoration="none" x="97.05908203125" y="144">name</text></g></g><g transform="translate(-54,-78) scale(1,1)"><g><path fill="none" stroke="none"/><text fill="#000000" stroke="none" font-family="Arial" font-size="13px" font-style="normal" font-weight="normal" text-decoration="none" x="182.1962890625" y="144">varchar(250)</text></g></g><g transform="translate(-54,-78) scale(1,1)"><g><path fill="none" stroke="none"/><text fill="#000000" stroke="none" font-family="Arial" font-size="13px" font-style="normal" font-weight="normal" text-decoration="none" x="69" y="143.5"></text></g></g><g transform="translate(-54,-78) scale(1,1)"><g><path fill="none" stroke="none"/><text fill="#000000" stroke="none" font-family="Arial" font-size="13px" font-style="normal" font-weight="normal" text-decoration="none" x="69" y="159"></text></g></g><g transform="translate(-54,-78) scale(1,1)"><g><path fill="none" stroke="none"/><text fill="#000000" stroke="none" font-family="Arial" font-size="13px" font-style="normal" font-weight="normal" text-decoration="none" x="97.05908203125" y="159">description</text></g></g><g transform="translate(-54,-78) scale(1,1)"><g><path fill="none" stroke="none"/><text fill="#000000" stroke="none" font-family="Arial" font-size="13px" font-style="normal" font-weight="normal" text-decoration="none" x="182.1962890625" y="159">varchar(1000)</text></g></g><g transform="translate(-54,-78) scale(1,1)"><g><path fill="none" stroke="none"/><text fill="#000000" stroke="none" font-family="Arial" font-size="13px" font-style="normal" font-weight="normal" text-decoration="none" x="69" y="158.5"></text></g></g><g transform="translate(-54,-78) scale(1,1)"><g><path fill="none" stroke="none"/><text fill="#000000" stroke="none" font-family="Arial" font-size="13px" font-style="normal" font-weight="normal" text-decoration="none" x="69" y="174"></text></g></g><g transform="translate(-54,-78) scale(1,1)"><g><path fill="none" stroke="none"/><text fill="#000000" stroke="none" font-family="Arial" font-size="13px" font-style="normal" font-weight="normal" text-decoration="none" x="97.05908203125" y="174">price</text></g></g><g transform="translate(-54,-78) scale(1,1)"><g><path fill="none" stroke="none"/><text fill="#000000" stroke="none" font-family="Arial" font-size="13px" font-style="normal" font-weight="normal" text-decoration="none" x="182.1962890625" y="174">double</text></g></g><g transform="translate(-54,-78) scale(1,1)"><g><path fill="none" stroke="none"/><text fill="#000000" stroke="none" font-family="Arial" font-size="13px" font-style="normal" font-weight="normal" text-decoration="none" x="69" y="173.5"></text></g></g><g transform="translate(-54,-78) scale(1,1)"><g><path fill="none" stroke="none"/><text fill="#000000" stroke="none" font-family="Arial" font-size="13px" font-style="normal" font-weight="normal" text-decoration="none" x="69" y="189"></text></g></g><g transform="translate(-54,-78) scale(1,1)"><g><path fill="none" stroke="none"/><text fill="#000000" stroke="none" font-family="Arial" font-size="13px" font-style="normal" font-weight="normal" text-decoration="none" x="97.05908203125" y="189">image</text></g></g><g transform="translate(-54,-78) scale(1,1)"><g><path fill="none" stroke="none"/><text fill="#000000" stroke="none" font-family="Arial" font-size="13px" font-style="normal" font-weight="normal" text-decoration="none" x="182.1962890625" y="189"></text></g></g><g transform="translate(-54,-78) scale(1,1)"><g><path fill="none" stroke="none"/><text fill="#000000" stroke="none" font-family="Arial" font-size="13px" font-style="normal" font-weight="normal" text-decoration="none" x="69" y="188.5"></text></g></g><g transform="translate(-54,-78) scale(1,1)"><g><path fill="none" stroke="none"/><text fill="#000000" stroke="none" font-family="Arial" font-size="13px" font-style="normal" font-weight="normal" text-decoration="none" x="69" y="204"></text></g></g><g transform="translate(-54,-78) scale(1,1)"><g><path fill="none" stroke="none"/><text fill="#000000" stroke="none" font-family="Arial" font-size="13px" font-style="normal" font-weight="normal" text-decoration="none" x="97.05908203125" y="204">dateCreated</text></g></g><g transform="translate(-54,-78) scale(1,1)"><g><path fill="none" stroke="none"/><text fill="#000000" stroke="none" font-family="Arial" font-size="13px" font-style="normal" font-weight="normal" text-decoration="none" x="182.1962890625" y="204">datetime</text></g></g><g transform="translate(-54,-78) scale(1,1)"><g><path fill="none" stroke="none"/><text fill="#000000" stroke="none" font-family="Arial" font-size="13px" font-style="normal" font-weight="normal" text-decoration="none" x="69" y="203.5"></text></g></g><g transform="translate(-54,-78) scale(1,1)"><rect fill="#C0C0C0" stroke="none" x="367" y="247" width="200.970703125" height="60" opacity="0.2"/></g><g transform="translate(-54,-78) scale(1,1)"><rect fill="#ffffff" stroke="none" x="360" y="240" width="200.970703125" height="60"/></g><g transform="translate(-54,-78) scale(1,1)"><path fill="none" stroke="#000000" d="M 360 240 L 560.970703125 240 L 560.970703125 300 L 360 300 L 360 240 Z Z" stroke-miterlimit="10"/></g><g transform="translate(-54,-78) scale(1,1)"><path fill="none" stroke="#000000" d="M 360 263 L 560.970703125 263" stroke-miterlimit="10"/></g><g transform="translate(-54,-78) scale(1,1)"><path fill="none" stroke="#000000" d="M 388.05908203125 263 L 388.05908203125 300" stroke-miterlimit="10"/></g><g transform="translate(-54,-78) scale(1,1)"><path fill="none" stroke="#000000" d="M 432.01904296875 263 L 432.01904296875 300" stroke-miterlimit="10"/></g><g transform="translate(-54,-78) scale(1,1)"><g><path fill="none" stroke="none"/><text fill="#000000" stroke="none" font-family="Arial" font-size="13px" font-style="normal" font-weight="bold" text-decoration="none" x="434.11083984375" y="257.5">Category</text></g></g><g transform="translate(-54,-78) scale(1,1)"><g><path fill="none" stroke="none"/><text fill="#000000" stroke="none" font-family="Arial" font-size="13px" font-style="normal" font-weight="normal" text-decoration="none" x="365" y="281">PK</text></g></g><g transform="translate(-54,-78) scale(1,1)"><g><path fill="none" stroke="none"/><text fill="#000000" stroke="none" font-family="Arial" font-size="13px" font-style="normal" font-weight="normal" text-decoration="none" x="393.05908203125" y="281">Id</text></g></g><g transform="translate(-54,-78) scale(1,1)"><g><path fill="none" stroke="none"/><text fill="#000000" stroke="none" font-family="Arial" font-size="13px" font-style="normal" font-weight="normal" text-decoration="none" x="437.01904296875" y="281">int</text></g></g><g transform="translate(-54,-78) scale(1,1)"><g><path fill="none" stroke="none"/><text fill="#000000" stroke="none" font-family="Arial" font-size="13px" font-style="normal" font-weight="normal" text-decoration="none" x="365" y="280.5"></text></g></g><g transform="translate(-54,-78) scale(1,1)"><g><path fill="none" stroke="none"/><text fill="#000000" stroke="none" font-family="Arial" font-size="13px" font-style="normal" font-weight="normal" text-decoration="none" x="365" y="296"></text></g></g><g transform="translate(-54,-78) scale(1,1)"><g><path fill="none" stroke="none"/><text fill="#000000" stroke="none" font-family="Arial" font-size="13px" font-style="normal" font-weight="normal" text-decoration="none" x="393.05908203125" y="296">name</text></g></g><g transform="translate(-54,-78) scale(1,1)"><g><path fill="none" stroke="none"/><text fill="#000000" stroke="none" font-family="Arial" font-size="13px" font-style="normal" font-weight="normal" text-decoration="none" x="437.01904296875" y="296">varchar(250)</text></g></g><g transform="translate(-54,-78) scale(1,1)"><g><path fill="none" stroke="none"/><text fill="#000000" stroke="none" font-family="Arial" font-size="13px" font-style="normal" font-weight="normal" text-decoration="none" x="365" y="295.5"></text></g></g><g transform="translate(-54,-78) scale(1,1)"><rect fill="#C0C0C0" stroke="none" x="367" y="95" width="130.841796875" height="112" opacity="0.2"/></g><g transform="translate(-54,-78) scale(1,1)"><rect fill="#ffffff" stroke="none" x="360" y="88" width="130.841796875" height="112"/></g><g transform="translate(-54,-78) scale(1,1)"><path fill="none" stroke="#000000" d="M 360 88 L 490.841796875 88 L 490.841796875 200 L 360 200 L 360 88 Z Z" stroke-miterlimit="10"/></g><g transform="translate(-54,-78) scale(1,1)"><path fill="none" stroke="#000000" d="M 360 111 L 490.841796875 111" stroke-miterlimit="10"/></g><g transform="translate(-54,-78) scale(1,1)"><path fill="none" stroke="#000000" d="M 388.05908203125 111 L 388.05908203125 200" stroke-miterlimit="10"/></g><g transform="translate(-54,-78) scale(1,1)"><path fill="none" stroke="#000000" d="M 463.8017578125 111 L 463.8017578125 200" stroke-miterlimit="10"/></g><g transform="translate(-54,-78) scale(1,1)"><g><path fill="none" stroke="none"/><text fill="#000000" stroke="none" font-family="Arial" font-size="13px" font-style="normal" font-weight="bold" text-decoration="none" x="376.6455078125" y="105.5">ProductCategory</text></g></g><g transform="translate(-54,-78) scale(1,1)"><g><path fill="none" stroke="none"/><text fill="#000000" stroke="none" font-family="Arial" font-size="13px" font-style="normal" font-weight="normal" text-decoration="none" x="365" y="129">PK</text></g></g><g transform="translate(-54,-78) scale(1,1)"><g><path fill="none" stroke="none"/><text fill="#000000" stroke="none" font-family="Arial" font-size="13px" font-style="normal" font-weight="normal" text-decoration="none" x="393.05908203125" y="129">id</text></g></g><g transform="translate(-54,-78) scale(1,1)"><g><path fill="none" stroke="none"/><text fill="#000000" stroke="none" font-family="Arial" font-size="13px" font-style="normal" font-weight="normal" text-decoration="none" x="468.8017578125" y="129">int</text></g></g><g transform="translate(-54,-78) scale(1,1)"><g><path fill="none" stroke="none"/><text fill="#000000" stroke="none" font-family="Arial" font-size="13px" font-style="normal" font-weight="normal" text-decoration="none" x="365" y="128.5"></text></g></g><g transform="translate(-54,-78) scale(1,1)"><g><path fill="none" stroke="none"/><text fill="#000000" stroke="none" font-family="Arial" font-size="13px" font-style="normal" font-weight="normal" text-decoration="none" x="365" y="144">FK</text></g></g><g transform="translate(-54,-78) scale(1,1)"><g><path fill="none" stroke="none"/><text fill="#000000" stroke="none" font-family="Arial" font-size="13px" font-style="normal" font-weight="normal" text-decoration="none" x="393.05908203125" y="144">productId</text></g></g><g transform="translate(-54,-78) scale(1,1)"><g><path fill="none" stroke="none"/><text fill="#000000" stroke="none" font-family="Arial" font-size="13px" font-style="normal" font-weight="normal" text-decoration="none" x="468.8017578125" y="144">int</text></g></g><g transform="translate(-54,-78) scale(1,1)"><g><path fill="none" stroke="none"/><text fill="#000000" stroke="none" font-family="Arial" font-size="13px" font-style="normal" font-weight="normal" text-decoration="none" x="365" y="143.5"></text></g></g><g transform="translate(-54,-78) scale(1,1)"><g><path fill="none" stroke="none"/><text fill="#000000" stroke="none" font-family="Arial" font-size="13px" font-style="normal" font-weight="normal" text-decoration="none" x="365" y="159">FK</text></g></g><g transform="translate(-54,-78) scale(1,1)"><g><path fill="none" stroke="none"/><text fill="#000000" stroke="none" font-family="Arial" font-size="13px" font-style="normal" font-weight="normal" text-decoration="none" x="393.05908203125" y="159">categoryId</text></g></g><g transform="translate(-54,-78) scale(1,1)"><g><path fill="none" stroke="none"/><text fill="#000000" stroke="none" font-family="Arial" font-size="13px" font-style="normal" font-weight="normal" text-decoration="none" x="468.8017578125" y="159">int</text></g></g><g transform="translate(-54,-78) scale(1,1)"><g><path fill="none" stroke="none"/><text fill="#000000" stroke="none" font-family="Arial" font-size="13px" font-style="normal" font-weight="normal" text-decoration="none" x="365" y="158.5"></text></g></g><g transform="translate(-54,-78) scale(1,1)"><path fill="none" stroke="#000000" d="M 272 144 L 360 144" stroke-miterlimit="10"/></g><g transform="translate(-54,-78) scale(1,1)"><path fill="none" stroke="#000000" d="M 346 144 L 360 151" stroke-miterlimit="10"/></g><g transform="translate(-54,-78) scale(1,1)"><path fill="none" stroke="#000000" d="M 346 144 L 360 137" stroke-miterlimit="10"/></g><g transform="translate(-54,-78) scale(1,1)"><path fill="#FFFFFF" stroke="none" d="M 331 144 C 331 140.1340064 334.1340064 137 338 137 C 341.8659936 137 345 140.1340064 345 144 C 345 147.8659936 341.8659936 151 338 151 C 334.1340064 151 331 147.8659936 331 144 Z"/></g><g transform="translate(-54,-78) scale(1,1)"><path fill="none" stroke="#000000" d="M 331 144 C 331 140.1340064 334.1340064 137 338 137 C 341.8659936 137 345 140.1340064 345 144 C 345 147.8659936 341.8659936 151 338 151 C 334.1340064 151 331 147.8659936 331 144 Z" stroke-miterlimit="10"/></g><g transform="translate(-54,-78) scale(1,1)"><path fill="none" stroke="#000000" d="M 279 137 L 279 151" stroke-miterlimit="10"/></g><g transform="translate(-54,-78) scale(1,1)"><path fill="none" stroke="#000000" d="M 286 137 L 286 151" stroke-miterlimit="10"/></g><g transform="translate(-54,-78) scale(1,1)"><g><path fill="none" stroke="none"/><text fill="#000000" stroke="none" font-family="Arial" font-size="13px" font-style="normal" font-weight="normal" text-decoration="none" x="296.5" y="135.5"></text></g></g><g transform="translate(-54,-78) scale(1,1)"><g><path fill="none" stroke="none"/><text fill="#000000" stroke="none" font-family="Arial" font-size="13px" font-style="normal" font-weight="normal" text-decoration="none" x="333.5" y="135.5"></text></g></g><g transform="translate(-54,-78) scale(1,1)"><path fill="none" stroke="#000000" d="M 561 270 L 592 270 L 592 144 L 491 144" stroke-miterlimit="10"/></g><g transform="translate(-54,-78) scale(1,1)"><path fill="none" stroke="#000000" d="M 505 144 L 491 137" stroke-miterlimit="10"/></g><g transform="translate(-54,-78) scale(1,1)"><path fill="none" stroke="#000000" d="M 505 144 L 491 151" stroke-miterlimit="10"/></g><g transform="translate(-54,-78) scale(1,1)"><path fill="#FFFFFF" stroke="none" d="M 506 144 C 506 140.1340064 509.1340064 137 513 137 C 516.8659936 137 520 140.1340064 520 144 C 520 147.8659936 516.8659936 151 513 151 C 509.1340064 151 506 147.8659936 506 144 Z"/></g><g transform="translate(-54,-78) scale(1,1)"><path fill="none" stroke="#000000" d="M 506 144 C 506 140.1340064 509.1340064 137 513 137 C 516.8659936 137 520 140.1340064 520 144 C 520 147.8659936 516.8659936 151 513 151 C 509.1340064 151 506 147.8659936 506 144 Z" stroke-miterlimit="10"/></g><g transform="translate(-54,-78) scale(1,1)"><path fill="none" stroke="#000000" d="M 568 263 L 568 277" stroke-miterlimit="10"/></g><g transform="translate(-54,-78) scale(1,1)"><path fill="none" stroke="#000000" d="M 575 263 L 575 277" stroke-miterlimit="10"/></g><g transform="translate(-54,-78) scale(1,1)"><g><path fill="none" stroke="none"/><text fill="#000000" stroke="none" font-family="Arial" font-size="13px" font-style="normal" font-weight="normal" text-decoration="none" x="585.5" y="261.5"></text></g></g><g transform="translate(-54,-78) scale(1,1)"><g><path fill="none" stroke="none"/><text fill="#000000" stroke="none" font-family="Arial" font-size="13px" font-style="normal" font-weight="normal" text-decoration="none" x="515.5" y="164.5"></text></g></g><g transform="translate(-54,-78) scale(1,1)"><rect fill="#C0C0C0" stroke="none" x="367" y="391" width="213.22802734375" height="120" opacity="0.2"/></g><g transform="translate(-54,-78) scale(1,1)"><rect fill="#ffffff" stroke="none" x="360" y="384" width="213.22802734375" height="120"/></g><g transform="translate(-54,-78) scale(1,1)"><path fill="none" stroke="#000000" d="M 360 384 L 573.22802734375 384 L 573.22802734375 504 L 360 504 L 360 384 Z Z" stroke-miterlimit="10"/></g><g transform="translate(-54,-78) scale(1,1)"><path fill="none" stroke="#000000" d="M 360 407 L 573.22802734375 407" stroke-miterlimit="10"/></g><g transform="translate(-54,-78) scale(1,1)"><path fill="none" stroke="#000000" d="M 388.05908203125 407 L 388.05908203125 504" stroke-miterlimit="10"/></g><g transform="translate(-54,-78) scale(1,1)"><path fill="none" stroke="#000000" d="M 486.1708984375 407 L 486.1708984375 504" stroke-miterlimit="10"/></g><g transform="translate(-54,-78) scale(1,1)"><g><path fill="none" stroke="none"/><text fill="#000000" stroke="none" font-family="Arial" font-size="13px" font-style="normal" font-weight="bold" text-decoration="none" x="438.43994140625" y="401.5">Customer</text></g></g><g transform="translate(-54,-78) scale(1,1)"><g><path fill="none" stroke="none"/><text fill="#000000" stroke="none" font-family="Arial" font-size="13px" font-style="normal" font-weight="normal" text-decoration="none" x="365" y="425">PK</text></g></g><g transform="translate(-54,-78) scale(1,1)"><g><path fill="none" stroke="none"/><text fill="#000000" stroke="none" font-family="Arial" font-size="13px" font-style="normal" font-weight="normal" text-decoration="none" x="393.05908203125" y="425">Id</text></g></g><g transform="translate(-54,-78) scale(1,1)"><g><path fill="none" stroke="none"/><text fill="#000000" stroke="none" font-family="Arial" font-size="13px" font-style="normal" font-weight="normal" text-decoration="none" x="491.1708984375" y="425">int</text></g></g><g transform="translate(-54,-78) scale(1,1)"><g><path fill="none" stroke="none"/><text fill="#000000" stroke="none" font-family="Arial" font-size="13px" font-style="normal" font-weight="normal" text-decoration="none" x="365" y="424.5"></text></g></g><g transform="translate(-54,-78) scale(1,1)"><g><path fill="none" stroke="none"/><text fill="#000000" stroke="none" font-family="Arial" font-size="13px" font-style="normal" font-weight="normal" text-decoration="none" x="365" y="440"></text></g></g><g transform="translate(-54,-78) scale(1,1)"><g><path fill="none" stroke="none"/><text fill="#000000" stroke="none" font-family="Arial" font-size="13px" font-style="normal" font-weight="normal" text-decoration="none" x="393.05908203125" y="440">fullName</text></g></g><g transform="translate(-54,-78) scale(1,1)"><g><path fill="none" stroke="none"/><text fill="#000000" stroke="none" font-family="Arial" font-size="13px" font-style="normal" font-weight="normal" text-decoration="none" x="491.1708984375" y="440">varchar(250)</text></g></g><g transform="translate(-54,-78) scale(1,1)"><g><path fill="none" stroke="none"/><text fill="#000000" stroke="none" font-family="Arial" font-size="13px" font-style="normal" font-weight="normal" text-decoration="none" x="365" y="439.5"></text></g></g><g transform="translate(-54,-78) scale(1,1)"><g><path fill="none" stroke="none"/><text fill="#000000" stroke="none" font-family="Arial" font-size="13px" font-style="normal" font-weight="normal" text-decoration="none" x="365" y="455"></text></g></g><g transform="translate(-54,-78) scale(1,1)"><g><path fill="none" stroke="none"/><text fill="#000000" stroke="none" font-family="Arial" font-size="13px" font-style="normal" font-weight="normal" text-decoration="none" x="393.05908203125" y="455">idNumber</text></g></g><g transform="translate(-54,-78) scale(1,1)"><g><path fill="none" stroke="none"/><text fill="#000000" stroke="none" font-family="Arial" font-size="13px" font-style="normal" font-weight="normal" text-decoration="none" x="491.1708984375" y="455">varchar(50)</text></g></g><g transform="translate(-54,-78) scale(1,1)"><g><path fill="none" stroke="none"/><text fill="#000000" stroke="none" font-family="Arial" font-size="13px" font-style="normal" font-weight="normal" text-decoration="none" x="365" y="454.5"></text></g></g><g transform="translate(-54,-78) scale(1,1)"><g><path fill="none" stroke="none"/><text fill="#000000" stroke="none" font-family="Arial" font-size="13px" font-style="normal" font-weight="normal" text-decoration="none" x="365" y="470"></text></g></g><g transform="translate(-54,-78) scale(1,1)"><g><path fill="none" stroke="none"/><text fill="#000000" stroke="none" font-family="Arial" font-size="13px" font-style="normal" font-weight="normal" text-decoration="none" x="393.05908203125" y="470">address</text></g></g><g transform="translate(-54,-78) scale(1,1)"><g><path fill="none" stroke="none"/><text fill="#000000" stroke="none" font-family="Arial" font-size="13px" font-style="normal" font-weight="normal" text-decoration="none" x="491.1708984375" y="470">varchar(250)</text></g></g><g transform="translate(-54,-78) scale(1,1)"><g><path fill="none" stroke="none"/><text fill="#000000" stroke="none" font-family="Arial" font-size="13px" font-style="normal" font-weight="normal" text-decoration="none" x="365" y="469.5"></text></g></g><g transform="translate(-54,-78) scale(1,1)"><g><path fill="none" stroke="none"/><text fill="#000000" stroke="none" font-family="Arial" font-size="13px" font-style="normal" font-weight="normal" text-decoration="none" x="365" y="485"></text></g></g><g transform="translate(-54,-78) scale(1,1)"><g><path fill="none" stroke="none"/><text fill="#000000" stroke="none" font-family="Arial" font-size="13px" font-style="normal" font-weight="normal" text-decoration="none" x="393.05908203125" y="485">phoneNumber</text></g></g><g transform="translate(-54,-78) scale(1,1)"><g><path fill="none" stroke="none"/><text fill="#000000" stroke="none" font-family="Arial" font-size="13px" font-style="normal" font-weight="normal" text-decoration="none" x="491.1708984375" y="485">varcar(100)</text></g></g><g transform="translate(-54,-78) scale(1,1)"><g><path fill="none" stroke="none"/><text fill="#000000" stroke="none" font-family="Arial" font-size="13px" font-style="normal" font-weight="normal" text-decoration="none" x="365" y="484.5"></text></g></g><g transform="translate(-54,-78) scale(1,1)"><g><path fill="none" stroke="none"/><text fill="#000000" stroke="none" font-family="Arial" font-size="13px" font-style="normal" font-weight="normal" text-decoration="none" x="365" y="500"></text></g></g><g transform="translate(-54,-78) scale(1,1)"><g><path fill="none" stroke="none"/><text fill="#000000" stroke="none" font-family="Arial" font-size="13px" font-style="normal" font-weight="normal" text-decoration="none" x="393.05908203125" y="500">email</text></g></g><g transform="translate(-54,-78) scale(1,1)"><g><path fill="none" stroke="none"/><text fill="#000000" stroke="none" font-family="Arial" font-size="13px" font-style="normal" font-weight="normal" text-decoration="none" x="491.1708984375" y="500">varchar(250)</text></g></g><g transform="translate(-54,-78) scale(1,1)"><g><path fill="none" stroke="none"/><text fill="#000000" stroke="none" font-family="Arial" font-size="13px" font-style="normal" font-weight="normal" text-decoration="none" x="365" y="499.5"></text></g></g><g transform="translate(-54,-78) scale(1,1)"><rect fill="#C0C0C0" stroke="none" x="71" y="399" width="193.6962890625" height="105" opacity="0.2"/></g><g transform="translate(-54,-78) scale(1,1)"><rect fill="#ffffff" stroke="none" x="64" y="392" width="193.6962890625" height="105"/></g><g transform="translate(-54,-78) scale(1,1)"><path fill="none" stroke="#000000" d="M 64 392 L 257.6962890625 392 L 257.6962890625 497 L 64 497 L 64 392 Z Z" stroke-miterlimit="10"/></g><g transform="translate(-54,-78) scale(1,1)"><path fill="none" stroke="#000000" d="M 64 415 L 257.6962890625 415" stroke-miterlimit="10"/></g><g transform="translate(-54,-78) scale(1,1)"><path fill="none" stroke="#000000" d="M 92.05908203125 415 L 92.05908203125 497" stroke-miterlimit="10"/></g><g transform="translate(-54,-78) scale(1,1)"><path fill="none" stroke="#000000" d="M 178.59912109375 415 L 178.59912109375 497" stroke-miterlimit="10"/></g><g transform="translate(-54,-78) scale(1,1)"><g><path fill="none" stroke="none"/><text fill="#000000" stroke="none" font-family="Arial" font-size="13px" font-style="normal" font-weight="bold" text-decoration="none" x="144.233154296875" y="409.5">Order</text></g></g><g transform="translate(-54,-78) scale(1,1)"><g><path fill="none" stroke="none"/><text fill="#000000" stroke="none" font-family="Arial" font-size="13px" font-style="normal" font-weight="normal" text-decoration="none" x="69" y="433">PK</text></g></g><g transform="translate(-54,-78) scale(1,1)"><g><path fill="none" stroke="none"/><text fill="#000000" stroke="none" font-family="Arial" font-size="13px" font-style="normal" font-weight="normal" text-decoration="none" x="97.05908203125" y="433">Id</text></g></g><g transform="translate(-54,-78) scale(1,1)"><g><path fill="none" stroke="none"/><text fill="#000000" stroke="none" font-family="Arial" font-size="13px" font-style="normal" font-weight="normal" text-decoration="none" x="183.59912109375" y="433">int</text></g></g><g transform="translate(-54,-78) scale(1,1)"><g><path fill="none" stroke="none"/><text fill="#000000" stroke="none" font-family="Arial" font-size="13px" font-style="normal" font-weight="normal" text-decoration="none" x="69" y="432.5"></text></g></g><g transform="translate(-54,-78) scale(1,1)"><g><path fill="none" stroke="none"/><text fill="#000000" stroke="none" font-family="Arial" font-size="13px" font-style="normal" font-weight="normal" text-decoration="none" x="69" y="448"></text></g></g><g transform="translate(-54,-78) scale(1,1)"><g><path fill="none" stroke="none"/><text fill="#000000" stroke="none" font-family="Arial" font-size="13px" font-style="normal" font-weight="normal" text-decoration="none" x="97.05908203125" y="448">number</text></g></g><g transform="translate(-54,-78) scale(1,1)"><g><path fill="none" stroke="none"/><text fill="#000000" stroke="none" font-family="Arial" font-size="13px" font-style="normal" font-weight="normal" text-decoration="none" x="183.59912109375" y="448">varchar(45)</text></g></g><g transform="translate(-54,-78) scale(1,1)"><g><path fill="none" stroke="none"/><text fill="#000000" stroke="none" font-family="Arial" font-size="13px" font-style="normal" font-weight="normal" text-decoration="none" x="69" y="447.5"></text></g></g><g transform="translate(-54,-78) scale(1,1)"><g><path fill="none" stroke="none"/><text fill="#000000" stroke="none" font-family="Arial" font-size="13px" font-style="normal" font-weight="normal" text-decoration="none" x="69" y="463">FK</text></g></g><g transform="translate(-54,-78) scale(1,1)"><g><path fill="none" stroke="none"/><text fill="#000000" stroke="none" font-family="Arial" font-size="13px" font-style="normal" font-weight="normal" text-decoration="none" x="97.05908203125" y="463">customerId</text></g></g><g transform="translate(-54,-78) scale(1,1)"><g><path fill="none" stroke="none"/><text fill="#000000" stroke="none" font-family="Arial" font-size="13px" font-style="normal" font-weight="normal" text-decoration="none" x="183.59912109375" y="463">int</text></g></g><g transform="translate(-54,-78) scale(1,1)"><g><path fill="none" stroke="none"/><text fill="#000000" stroke="none" font-family="Arial" font-size="13px" font-style="normal" font-weight="normal" text-decoration="none" x="69" y="462.5"></text></g></g><g transform="translate(-54,-78) scale(1,1)"><g><path fill="none" stroke="none"/><text fill="#000000" stroke="none" font-family="Arial" font-size="13px" font-style="normal" font-weight="normal" text-decoration="none" x="69" y="478"></text></g></g><g transform="translate(-54,-78) scale(1,1)"><g><path fill="none" stroke="none"/><text fill="#000000" stroke="none" font-family="Arial" font-size="13px" font-style="normal" font-weight="normal" text-decoration="none" x="97.05908203125" y="478">dateCreated</text></g></g><g transform="translate(-54,-78) scale(1,1)"><g><path fill="none" stroke="none"/><text fill="#000000" stroke="none" font-family="Arial" font-size="13px" font-style="normal" font-weight="normal" text-decoration="none" x="183.59912109375" y="478">datetime</text></g></g><g transform="translate(-54,-78) scale(1,1)"><g><path fill="none" stroke="none"/><text fill="#000000" stroke="none" font-family="Arial" font-size="13px" font-style="normal" font-weight="normal" text-decoration="none" x="69" y="477.5"></text></g></g><g transform="translate(-54,-78) scale(1,1)"><g><path fill="none" stroke="none"/><text fill="#000000" stroke="none" font-family="Arial" font-size="13px" font-style="normal" font-weight="normal" text-decoration="none" x="69" y="493"></text></g></g><g transform="translate(-54,-78) scale(1,1)"><g><path fill="none" stroke="none"/><text fill="#000000" stroke="none" font-family="Arial" font-size="13px" font-style="normal" font-weight="normal" text-decoration="none" x="97.05908203125" y="493">totalAmount</text></g></g><g transform="translate(-54,-78) scale(1,1)"><g><path fill="none" stroke="none"/><text fill="#000000" stroke="none" font-family="Arial" font-size="13px" font-style="normal" font-weight="normal" text-decoration="none" x="183.59912109375" y="493">double</text></g></g><g transform="translate(-54,-78) scale(1,1)"><g><path fill="none" stroke="none"/><text fill="#000000" stroke="none" font-family="Arial" font-size="13px" font-style="normal" font-weight="normal" text-decoration="none" x="69" y="492.5"></text></g></g><g transform="translate(-54,-78) scale(1,1)"><rect fill="#C0C0C0" stroke="none" x="71" y="247" width="123.60546875" height="90" opacity="0.2"/></g><g transform="translate(-54,-78) scale(1,1)"><rect fill="#ffffff" stroke="none" x="64" y="240" width="123.60546875" height="90"/></g><g transform="translate(-54,-78) scale(1,1)"><path fill="none" stroke="#000000" d="M 64 240 L 187.60546875 240 L 187.60546875 330 L 64 330 L 64 240 Z Z" stroke-miterlimit="10"/></g><g transform="translate(-54,-78) scale(1,1)"><path fill="none" stroke="#000000" d="M 64 263 L 187.60546875 263" stroke-miterlimit="10"/></g><g transform="translate(-54,-78) scale(1,1)"><path fill="none" stroke="#000000" d="M 92.05908203125 263 L 92.05908203125 330" stroke-miterlimit="10"/></g><g transform="translate(-54,-78) scale(1,1)"><path fill="none" stroke="#000000" d="M 161.99365234375 263 L 161.99365234375 330" stroke-miterlimit="10"/></g><g transform="translate(-54,-78) scale(1,1)"><g><path fill="none" stroke="none"/><text fill="#000000" stroke="none" font-family="Arial" font-size="13px" font-style="normal" font-weight="bold" text-decoration="none" x="96.54638671875" y="257.5">OrderItem</text></g></g><g transform="translate(-54,-78) scale(1,1)"><g><path fill="none" stroke="none"/><text fill="#000000" stroke="none" font-family="Arial" font-size="13px" font-style="normal" font-weight="normal" text-decoration="none" x="69" y="281">PK</text></g></g><g transform="translate(-54,-78) scale(1,1)"><g><path fill="none" stroke="none"/><text fill="#000000" stroke="none" font-family="Arial" font-size="13px" font-style="normal" font-weight="normal" text-decoration="none" x="97.05908203125" y="281">Id</text></g></g><g transform="translate(-54,-78) scale(1,1)"><g><path fill="none" stroke="none"/><text fill="#000000" stroke="none" font-family="Arial" font-size="13px" font-style="normal" font-weight="normal" text-decoration="none" x="166.99365234375" y="281">int</text></g></g><g transform="translate(-54,-78) scale(1,1)"><g><path fill="none" stroke="none"/><text fill="#000000" stroke="none" font-family="Arial" font-size="13px" font-style="normal" font-weight="normal" text-decoration="none" x="69" y="280.5"></text></g></g><g transform="translate(-54,-78) scale(1,1)"><g><path fill="none" stroke="none"/><text fill="#000000" stroke="none" font-family="Arial" font-size="13px" font-style="normal" font-weight="normal" text-decoration="none" x="69" y="296">FK</text></g></g><g transform="translate(-54,-78) scale(1,1)"><g><path fill="none" stroke="none"/><text fill="#000000" stroke="none" font-family="Arial" font-size="13px" font-style="normal" font-weight="normal" text-decoration="none" x="97.05908203125" y="296">orderId</text></g></g><g transform="translate(-54,-78) scale(1,1)"><g><path fill="none" stroke="none"/><text fill="#000000" stroke="none" font-family="Arial" font-size="13px" font-style="normal" font-weight="normal" text-decoration="none" x="166.99365234375" y="296">int</text></g></g><g transform="translate(-54,-78) scale(1,1)"><g><path fill="none" stroke="none"/><text fill="#000000" stroke="none" font-family="Arial" font-size="13px" font-style="normal" font-weight="normal" text-decoration="none" x="69" y="295.5"></text></g></g><g transform="translate(-54,-78) scale(1,1)"><g><path fill="none" stroke="none"/><text fill="#000000" stroke="none" font-family="Arial" font-size="13px" font-style="normal" font-weight="normal" text-decoration="none" x="69" y="311">FK</text></g></g><g transform="translate(-54,-78) scale(1,1)"><g><path fill="none" stroke="none"/><text fill="#000000" stroke="none" font-family="Arial" font-size="13px" font-style="normal" font-weight="normal" text-decoration="none" x="97.05908203125" y="311">productId</text></g></g><g transform="translate(-54,-78) scale(1,1)"><g><path fill="none" stroke="none"/><text fill="#000000" stroke="none" font-family="Arial" font-size="13px" font-style="normal" font-weight="normal" text-decoration="none" x="166.99365234375" y="311">int</text></g></g><g transform="translate(-54,-78) scale(1,1)"><g><path fill="none" stroke="none"/><text fill="#000000" stroke="none" font-family="Arial" font-size="13px" font-style="normal" font-weight="normal" text-decoration="none" x="69" y="310.5"></text></g></g><g transform="translate(-54,-78) scale(1,1)"><g><path fill="none" stroke="none"/><text fill="#000000" stroke="none" font-family="Arial" font-size="13px" font-style="normal" font-weight="normal" text-decoration="none" x="69" y="326"></text></g></g><g transform="translate(-54,-78) scale(1,1)"><g><path fill="none" stroke="none"/><text fill="#000000" stroke="none" font-family="Arial" font-size="13px" font-style="normal" font-weight="normal" text-decoration="none" x="97.05908203125" y="326">quantity</text></g></g><g transform="translate(-54,-78) scale(1,1)"><g><path fill="none" stroke="none"/><text fill="#000000" stroke="none" font-family="Arial" font-size="13px" font-style="normal" font-weight="normal" text-decoration="none" x="166.99365234375" y="326">int</text></g></g><g transform="translate(-54,-78) scale(1,1)"><g><path fill="none" stroke="none"/><text fill="#000000" stroke="none" font-family="Arial" font-size="13px" font-style="normal" font-weight="normal" text-decoration="none" x="69" y="325.5"></text></g></g><g transform="translate(-54,-78) scale(1,1)"><path fill="none" stroke="#000000" d="M 258 408 L 360 408" stroke-miterlimit="10"/></g><g transform="translate(-54,-78) scale(1,1)"><path fill="none" stroke="#000000" d="M 353 415 L 353 401" stroke-miterlimit="10"/></g><g transform="translate(-54,-78) scale(1,1)"><path fill="none" stroke="#000000" d="M 346 415 L 346 401" stroke-miterlimit="10"/></g><g transform="translate(-54,-78) scale(1,1)"><path fill="none" stroke="#000000" d="M 265 401 L 265 415" stroke-miterlimit="10"/></g><g transform="translate(-54,-78) scale(1,1)"><path fill="none" stroke="#000000" d="M 272 401 L 272 415" stroke-miterlimit="10"/></g><g transform="translate(-54,-78) scale(1,1)"><g><path fill="none" stroke="none"/><text fill="#000000" stroke="none" font-family="Arial" font-size="13px" font-style="normal" font-weight="normal" text-decoration="none" x="282.5" y="399.5"></text></g></g><g transform="translate(-54,-78) scale(1,1)"><g><path fill="none" stroke="none"/><text fill="#000000" stroke="none" font-family="Arial" font-size="13px" font-style="normal" font-weight="normal" text-decoration="none" x="333.5" y="399.5"></text></g></g><g transform="translate(-54,-78) scale(1,1)"><path fill="none" stroke="#000000" d="M 152 392 L 152 330" stroke-miterlimit="10"/></g><g transform="translate(-54,-78) scale(1,1)"><path fill="none" stroke="#000000" d="M 152 344 L 159 330" stroke-miterlimit="10"/></g><g transform="translate(-54,-78) scale(1,1)"><path fill="none" stroke="#000000" d="M 152 344 L 145 330" stroke-miterlimit="10"/></g><g transform="translate(-54,-78) scale(1,1)"><path fill="#FFFFFF" stroke="none" d="M 145 352 C 145 348.1340064 148.1340064 345 152 345 C 155.8659936 345 159 348.1340064 159 352 C 159 355.8659936 155.8659936 359 152 359 C 148.1340064 359 145 355.8659936 145 352 Z"/></g><g transform="translate(-54,-78) scale(1,1)"><path fill="none" stroke="#000000" d="M 145 352 C 145 348.1340064 148.1340064 345 152 345 C 155.8659936 345 159 348.1340064 159 352 C 159 355.8659936 155.8659936 359 152 359 C 148.1340064 359 145 355.8659936 145 352 Z" stroke-miterlimit="10"/></g><g transform="translate(-54,-78) scale(1,1)"><path fill="none" stroke="#000000" d="M 145 385 L 159 385" stroke-miterlimit="10"/></g><g transform="translate(-54,-78) scale(1,1)"><path fill="none" stroke="#000000" d="M 145 378 L 159 378" stroke-miterlimit="10"/></g><g transform="translate(-54,-78) scale(1,1)"><g><path fill="none" stroke="none"/><text fill="#000000" stroke="none" font-family="Arial" font-size="13px" font-style="normal" font-weight="normal" text-decoration="none" x="136.5" y="372.5"></text></g></g><g transform="translate(-54,-78) scale(1,1)"><g><path fill="none" stroke="none"/><text fill="#000000" stroke="none" font-family="Arial" font-size="13px" font-style="normal" font-weight="normal" text-decoration="none" x="136.5" y="361.5"></text></g></g><g transform="translate(-54,-78) scale(1,1)"><path fill="none" stroke="#000000" d="M 232 208 L 232 280 M 232 280 A 8 8 0 0 1 224 288 L 188 288" stroke-miterlimit="10"/></g><g transform="translate(-54,-78) scale(1,1)"><path fill="none" stroke="#000000" d="M 202 288 L 188 281" stroke-miterlimit="10"/></g><g transform="translate(-54,-78) scale(1,1)"><path fill="none" stroke="#000000" d="M 202 288 L 188 295" stroke-miterlimit="10"/></g><g transform="translate(-54,-78) scale(1,1)"><path fill="#FFFFFF" stroke="none" d="M 203 288 C 203 284.1340064 206.1340064 281 210 281 C 213.8659936 281 217 284.1340064 217 288 C 217 291.8659936 213.8659936 295 210 295 C 206.1340064 295 203 291.8659936 203 288 Z"/></g><g transform="translate(-54,-78) scale(1,1)"><path fill="none" stroke="#000000" d="M 203 288 C 203 284.1340064 206.1340064 281 210 281 C 213.8659936 281 217 284.1340064 217 288 C 217 291.8659936 213.8659936 295 210 295 C 206.1340064 295 203 291.8659936 203 288 Z" stroke-miterlimit="10"/></g><g transform="translate(-54,-78) scale(1,1)"><path fill="none" stroke="#000000" d="M 239 215 L 225 215" stroke-miterlimit="10"/></g><g transform="translate(-54,-78) scale(1,1)"><path fill="none" stroke="#000000" d="M 239 222 L 225 222" stroke-miterlimit="10"/></g><g transform="translate(-54,-78) scale(1,1)"><g><path fill="none" stroke="none"/><text fill="#000000" stroke="none" font-family="Arial" font-size="13px" font-style="normal" font-weight="normal" text-decoration="none" x="246.5" y="239.5"></text></g></g><g transform="translate(-54,-78) scale(1,1)"><g><path fill="none" stroke="none"/><text fill="#000000" stroke="none" font-family="Arial" font-size="13px" font-style="normal" font-weight="normal" text-decoration="none" x="212.5" y="308.5"></text></g></g></g></svg>